# xmcd
#
# Track frame offsets:
#	150
#	14434
#	40908
#	69259
#	106113
#	133077
#	149179
#	167258
#	185035
#	210939
#	227186
#	242906
#	267587
#	286342
#	306055
#
# Disc length: 4277
#
# Revision: 4
# Processed by: cddbd v1.5.1PL0 Copyright (c) Steve Scherf et al.
# Submitted via: tcd 2.0b
# Normalized: r2:TDELIM( - ),TSWAP
#
DISCID=db10b30f
DTITLE=Stay@WorkCD
DYEAR=1900
DGENRE=
TTITLE0=Elvis Costello - She
TTITLE1=Fiona Apple - Pale September
TTITLE2=Elton John - Tiny Dancer
TTITLE3=Dave Mathews - Crush
TTITLE4=Fiona Apple - Slow Like Honey
TTITLE5=Elton John - Elderberry Wine
TTITLE6=John Denver - Leavin' On a Jet Plane
TTITLE7=Allison Krauss - Happiness
TTITLE8=Fiona Apple - Criminal
TTITLE9=Miss Congeniality ST - One in a Million
TTITLE10=Bran Van 3000's - Everywhere
TTITLE11=Edwin McCain - I'll Be
TTITLE12=Merideth Brooks - Bitch
TTITLE13=Allison Krauss - You Say Nothing
TTITLE14=Faith Hill - This Kiss
EXTD=
EXTT0=
EXTT1=
EXTT2=
EXTT3=
EXTT4=
EXTT5=
EXTT6=
EXTT7=
EXTT8=
EXTT9=
EXTT10=
EXTT11=
EXTT12=
EXTT13=
EXTT14=
PLAYORDER=
